<svg width="85" height="81" fill="none" xmlns="http://www.w3.org/2000/svg"><path d="M62.588.656C50.23.656 40.176 10.71 40.176 23.068c0 12.359 10.054 22.412 22.412 22.412C74.946 45.48 85 35.427 85 23.069 85 10.71 74.946.656 62.588.656Zm0 34.864a7.461 7.461 0 0 1-6.883-4.563l4.587-1.94a2.49 2.49 0 1 0 2.296-3.458c-4.119 0-7.47-3.352-7.47-7.471s3.351-7.47 7.47-7.47a7.461 7.461 0 0 1 6.883 4.561l-4.587 1.941a2.489 2.489 0 0 0-2.296-1.522 2.493 2.493 0 0 0-2.49 2.49 2.493 2.493 0 0 0 2.49 2.49c4.119 0 7.47 3.352 7.47 7.47 0 4.12-3.351 7.472-7.47 7.472Z" fill="#FFDA45"/><path d="M74.714 47.629a27.228 27.228 0 0 1-12.126 2.832c-14.264 0-26.018-10.96-27.282-24.902H30.05c-3.498 0-6.855.708-10.003 2.11a17.27 17.27 0 0 0-8.237-2.11H4.182L8.445 38.35a25.665 25.665 0 0 0-1.11 2.15H0v19.922h7.32a24.975 24.975 0 0 0 9.242 10.87 7.687 7.687 0 0 1 3.526 6.475v2.577h14.941v-4.98h14.942v4.98h14.941v-2.49c0-4.168 1.474-8.222 4.152-11.416a24.83 24.83 0 0 0 5.65-18.81ZM25.068 45.48h-4.98V40.5h4.98v4.98Z" fill="#FFDA45"/></svg>