<?xml version="1.0" encoding="UTF-8" standalone="no"?>
<svg
   xmlns:dc="http://purl.org/dc/elements/1.1/"
   xmlns:cc="http://creativecommons.org/ns#"
   xmlns:rdf="http://www.w3.org/1999/02/22-rdf-syntax-ns#"
   xmlns:svg="http://www.w3.org/2000/svg"
   xmlns="http://www.w3.org/2000/svg"
   xmlns:sodipodi="http://sodipodi.sourceforge.net/DTD/sodipodi-0.dtd"
   xmlns:inkscape="http://www.inkscape.org/namespaces/inkscape"
   width="85"
   height="85"
   fill="none"
   id="svg6447"
   version="1.1"
   inkscape:version="0.91 r13725"
   sodipodi:docname="price3.svg">
  <metadata
     id="metadata6457">
    <rdf:RDF>
      <cc:Work
         rdf:about="">
        <dc:format>image/svg+xml</dc:format>
        <dc:type
           rdf:resource="http://purl.org/dc/dcmitype/StillImage" />
        <dc:title></dc:title>
      </cc:Work>
    </rdf:RDF>
  </metadata>
  <defs
     id="defs6455" />
  <sodipodi:namedview
     pagecolor="#ffffff"
     bordercolor="#666666"
     borderopacity="1"
     objecttolerance="10"
     gridtolerance="10"
     guidetolerance="10"
     inkscape:pageopacity="0"
     inkscape:pageshadow="2"
     inkscape:window-width="1920"
     inkscape:window-height="1016"
     id="namedview6453"
     showgrid="false"
     inkscape:zoom="9.6823529"
     inkscape:cx="42.5"
     inkscape:cy="45.971352"
     inkscape:window-x="0"
     inkscape:window-y="0"
     inkscape:window-maximized="1"
     inkscape:current-layer="svg6447" />
  <g
     transform="translate(-348.12823,-341.55062)"
     id="g5648">
    <g
       transform="translate(348.0766,343.70551)"
       id="g4208"
       style="fill:none">
      <path
         style="fill:#ffda45"
         inkscape:connector-curvature="0"
         d="m 62.5879,0.65625 c -12.3582,0 -22.4121,10.05395 -22.4121,22.41215 0,12.3582 10.0539,22.4121 22.4121,22.4121 C 74.9461,45.4805 85,35.4266 85,23.0684 85,10.7102 74.9461,0.65625 62.5879,0.65625 Z m 0,34.86325 c -3.0082,0 -5.7109,-1.7913 -6.883,-4.5621 l 4.587,-1.9407 c 0.3918,0.9247 1.2933,1.5224 2.296,1.5224 1.3729,0 2.4902,-1.1173 2.4902,-2.4903 0,-1.3729 -1.1173,-2.4902 -2.4902,-2.4902 -4.1189,0 -7.4707,-3.3519 -7.4707,-7.4707 0,-4.1189 3.3518,-7.4707 7.4707,-7.4707 3.0082,0 5.7109,1.7913 6.883,4.5621 l -4.587,1.9407 c -0.3918,-0.9247 -1.2916,-1.5223 -2.296,-1.5223 -1.373,0 -2.4902,1.1172 -2.4902,2.4902 0,1.3729 1.1172,2.4902 2.4902,2.4902 4.1188,0 7.4707,3.3519 7.4707,7.4707 0,4.1189 -3.3519,7.4707 -7.4707,7.4707 z"
         id="path4198" />
      <path
         style="fill:#ffda45"
         inkscape:connector-curvature="0"
         d="m 74.7137,47.6287 c -3.6573,1.8129 -7.7745,2.8322 -12.1258,2.8322 -14.2641,0 -26.018,-10.9603 -27.2814,-24.9023 l -5.2577,0 c -3.4979,0 -6.8548,0.7089 -10.0024,2.1101 -2.555,-1.3846 -5.3756,-2.1101 -8.2377,-2.1101 l -7.62677,0 4.26328,12.7915 C 8.02022,39.0922 7.65166,39.8011 7.33457,40.5 L 0,40.5 l 0,19.9219 7.31963,0 c 1.9457,4.4243 5.17967,8.241 9.24207,10.8707 2.208,1.4294 3.5262,3.8499 3.5262,6.4746 l 0,2.5766 14.9414,0 0,-4.9805 14.9414,0 0,4.9805 14.9414,0 0,-2.4903 c 0,-4.167 1.4742,-8.2211 4.1521,-11.4152 4.5604,-5.4387 6.4048,-12.3101 5.6495,-18.8096 z m -49.6453,-2.1482 -4.9805,0 0,-4.9805 4.9805,0 0,4.9805 z"
         id="path4200" />
    </g>
    <rect
       ry="15.935846"
       y="341.70554"
       x="348.0766"
       height="85"
       width="85"
       id="rect4212"
       style="opacity:1;fill:none;fill-opacity:1;stroke:none;stroke-width:2.9000001;stroke-linecap:butt;stroke-linejoin:round;stroke-miterlimit:4;stroke-dasharray:none;stroke-opacity:1" />
  </g>
</svg>
