<svg width="175" height="175" fill="none" xmlns="http://www.w3.org/2000/svg"><path d="M87.5 175c48.325 0 87.5-39.175 87.5-87.5S135.825 0 87.5 0 0 39.175 0 87.5 39.175 175 87.5 175Z" fill="#FFDA45"/><path d="M70.998 112.383h33.018v14.629H70.998v-14.629Z" fill="#2F4859"/><path d="M131.66 46.101H43.34a3.39 3.39 0 0 0-3.39 3.39v62.645a3.39 3.39 0 0 0 3.39 3.391h88.32a3.39 3.39 0 0 0 3.391-3.391V49.492a3.39 3.39 0 0 0-3.391-3.39Z" fill="#3A556A"/><path d="M45.773 51.926h83.454v51.939H45.773v-51.94Z" fill="#309"/><path d="M110.25 125.111h-45.5a1.902 1.902 0 0 0-1.239 3.179c.323.351.765.568 1.24.608h45.499a1.897 1.897 0 0 0 1.739-1.893 1.902 1.902 0 0 0-1.739-1.894Z" fill="#3A556A"/><path d="M87.5 106.969a2.73 2.73 0 0 0-2.526 1.688 2.734 2.734 0 1 0 2.526-1.688Z" fill="#2F4859"/><path d="M64.135 64.586h-.807v-5.154c-.235.213-.492.4-.766.56a4.809 4.809 0 0 1-.861.41v-.779a4.795 4.795 0 0 0 1.19-.765c.29-.248.535-.544.724-.875h.52v6.603ZM67.703 61.332a6.327 6.327 0 0 1 .233-1.873c.129-.424.375-.803.71-1.094.345-.264.77-.4 1.204-.382.321-.005.64.065.93.205.262.152.486.363.656.615.184.306.322.638.41.984.105.508.15 1.027.136 1.545a5.906 5.906 0 0 1-.232 1.873c-.112.407-.34.773-.656 1.053-.337.27-.758.41-1.19.396a1.833 1.833 0 0 1-1.504-.683 4.402 4.402 0 0 1-.697-2.639Zm.834 0c-.068.74.059 1.485.37 2.16a1.12 1.12 0 0 0 .943.533 1.107 1.107 0 0 0 .93-.533 4.101 4.101 0 0 0 .382-2.16 4.005 4.005 0 0 0-.383-2.146 1.094 1.094 0 0 0-1.45-.423 1.04 1.04 0 0 0-.382.354 4.198 4.198 0 0 0-.41 2.215ZM77.93 64.586h-.807v-5.154c-.236.212-.492.4-.766.56-.27.162-.553.3-.847.41v-.779a4.716 4.716 0 0 0 1.175-.766c.29-.247.536-.543.725-.875h.52v6.604ZM84.902 64.586h-.806v-5.154c-.233.215-.49.404-.766.56a4.722 4.722 0 0 1-.848.41v-.779a4.797 4.797 0 0 0 1.19-.766c.29-.243.532-.54.71-.875h.52v6.604ZM88.47 61.332a5.866 5.866 0 0 1 .247-1.873c.129-.424.375-.803.71-1.094.339-.265.76-.4 1.19-.382.322-.009.641.062.93.205.269.148.499.36.67.615.18.307.313.638.396.984.118.506.168 1.026.15 1.545a6.33 6.33 0 0 1-.232 1.873 2.283 2.283 0 0 1-.71 1.094 1.996 1.996 0 0 1-2.735-.287 4.307 4.307 0 0 1-.615-2.68Zm.835 0c-.071.742.061 1.488.382 2.16a1.108 1.108 0 0 0 .93.533 1.147 1.147 0 0 0 .944-.533 4.197 4.197 0 0 0 .382-2.16 4.101 4.101 0 0 0-.341-2.146 1.121 1.121 0 0 0-.944-.547 1.04 1.04 0 0 0-.889.478c-.36.68-.52 1.448-.464 2.215ZM98.766 64.586h-.82v-5.154c-.23.218-.488.407-.766.56a4.722 4.722 0 0 1-.848.41v-.779a4.795 4.795 0 0 0 1.19-.766c.29-.243.531-.54.71-.875h.534v6.604ZM102.334 61.332a5.891 5.891 0 0 1 .205-1.873c.129-.424.375-.803.711-1.094a1.817 1.817 0 0 1 1.203-.383 1.97 1.97 0 0 1 .916.206c.269.148.499.36.67.615.179.309.317.64.41.984.105.508.151 1.026.137 1.545a5.901 5.901 0 0 1-.233 1.873 2.274 2.274 0 0 1-.711 1.094c-.336.27-.758.41-1.189.396a1.83 1.83 0 0 1-1.504-.683 4.324 4.324 0 0 1-.615-2.68Zm.82 0a4.197 4.197 0 0 0 .383 2.16 1.092 1.092 0 0 0 1.873 0 4.197 4.197 0 0 0 .383-2.16 4.105 4.105 0 0 0-.383-2.146 1.125 1.125 0 0 0-.943-.547 1.042 1.042 0 0 0-.889.478 4.1 4.1 0 0 0-.424 2.215ZM112.615 64.586h-.807v-5.154c-.235.212-.491.4-.765.56a4.812 4.812 0 0 1-.861.41v-.779a4.806 4.806 0 0 0 1.189-.766c.29-.247.535-.543.725-.875h.519v6.604ZM64.135 75.606h-.807v-5.141a4.631 4.631 0 0 1-.766.547 4.96 4.96 0 0 1-.861.424v-.78c.43-.205.83-.467 1.19-.779.293-.245.538-.541.724-.875h.52v6.604ZM67.799 72.365a6.428 6.428 0 0 1 .232-1.886c.138-.424.388-.802.725-1.094.338-.265.76-.401 1.19-.383.323-.009.643.067.929.219.268.145.494.357.656.615.193.297.332.626.41.97.112.513.162 1.036.15 1.56a5.767 5.767 0 0 1-.245 1.859c-.124.43-.371.815-.711 1.107a2.01 2.01 0 0 1-2.735-.3 4.389 4.389 0 0 1-.601-2.667Zm.834 0a4.17 4.17 0 0 0 .369 2.147 1.12 1.12 0 0 0 .943.547 1.094 1.094 0 0 0 .93-.547c.324-.666.456-1.41.383-2.147a4.101 4.101 0 0 0-.383-2.16 1.108 1.108 0 0 0-.943-.533 1.025 1.025 0 0 0-.889.465 4.294 4.294 0 0 0-.41 2.228ZM74.826 72.365a6 6 0 0 1 .233-1.886 2.42 2.42 0 0 1 .71-1.094c.339-.265.76-.401 1.19-.383.324-.01.645.065.93.219.275.14.507.353.67.615.182.3.316.628.396.97.118.511.169 1.035.15 1.56a6.236 6.236 0 0 1-.232 1.859 2.393 2.393 0 0 1-.71 1.107c-.343.267-.77.403-1.204.383a1.792 1.792 0 0 1-1.49-.684 4.293 4.293 0 0 1-.643-2.666Zm.82 0a4.102 4.102 0 0 0 .383 2.147 1.095 1.095 0 0 0 .93.547 1.106 1.106 0 0 0 .943-.547 4.1 4.1 0 0 0 .383-2.147 4.197 4.197 0 0 0-.355-2.16 1.148 1.148 0 0 0-.944-.533 1.025 1.025 0 0 0-.888.465 4.102 4.102 0 0 0-.451 2.228ZM81.84 72.365a5.948 5.948 0 0 1 .191-1.886 2.42 2.42 0 0 1 .711-1.094c.338-.265.76-.401 1.19-.383.323-.01.644.065.93.219.273.137.501.35.656.615.192.297.331.626.41.97.13.51.198 1.034.205 1.56a6.232 6.232 0 0 1-.233 1.859 2.393 2.393 0 0 1-.71 1.107c-.344.265-.77.4-1.204.383a1.765 1.765 0 0 1-1.49-.684 4.293 4.293 0 0 1-.656-2.666Zm.834 0c-.074.738.059 1.48.383 2.147a1.095 1.095 0 0 0 .93.547 1.12 1.12 0 0 0 .943-.547 4.17 4.17 0 0 0 .369-2.147 4.24 4.24 0 0 0-.37-2.16 1.15 1.15 0 0 0-.956-.533.999.999 0 0 0-.875.465 4.1 4.1 0 0 0-.424 2.228ZM92.217 75.606h-.807v-5.141a3.707 3.707 0 0 1-.766.547c-.268.168-.552.31-.847.424v-.78c.43-.205.83-.467 1.19-.779.293-.24.535-.538.71-.875h.52v6.604ZM95.894 72.365a6.425 6.425 0 0 1 .233-1.886 2.42 2.42 0 0 1 .71-1.094c.344-.265.77-.4 1.204-.383.32-.009.635.067.916.219.275.14.507.353.67.615.181.303.32.63.41.97a6.74 6.74 0 0 1 .137 1.56 5.825 5.825 0 0 1-.233 1.859 2.392 2.392 0 0 1-.71 1.107 2.01 2.01 0 0 1-2.735-.3 4.293 4.293 0 0 1-.602-2.667Zm.82 0a4.101 4.101 0 0 0 .356 2.147 1.107 1.107 0 0 0 .944.547 1.094 1.094 0 0 0 .93-.547 4.1 4.1 0 0 0 .382-2.147 4.196 4.196 0 0 0-.383-2.16 1.12 1.12 0 0 0-.916-.478 1.025 1.025 0 0 0-.889.465 4.265 4.265 0 0 0-.423 2.173ZM102.908 72.365a5.933 5.933 0 0 1 .246-1.886c.132-.423.378-.802.711-1.094.338-.265.76-.401 1.189-.383.324-.01.645.065.93.219.274.137.502.35.656.615.193.297.332.626.411.97.118.511.168 1.035.15 1.56a6.245 6.245 0 0 1-.232 1.859 2.401 2.401 0 0 1-.711 1.107c-.344.265-.77.4-1.204.383a1.765 1.765 0 0 1-1.49-.684 4.297 4.297 0 0 1-.656-2.666Zm.834 0c-.073.738.059 1.48.383 2.147a1.09 1.09 0 0 0 .929.547 1.121 1.121 0 0 0 .944-.547c.311-.67.438-1.411.369-2.147a4.246 4.246 0 0 0-.369-2.16 1.144 1.144 0 0 0-.944-.533 1.008 1.008 0 0 0-.888.465 4.102 4.102 0 0 0-.424 2.228ZM113.299 75.606h-.82v-5.141a3.72 3.72 0 0 1-.766.547c-.268.168-.552.31-.848.424v-.78c.43-.205.83-.467 1.19-.779a2.83 2.83 0 0 0 .711-.875h.533v6.604ZM64.135 86.639h-.807v-5.154c-.235.212-.492.4-.766.56a4.81 4.81 0 0 1-.861.41v-.78a4.801 4.801 0 0 0 1.19-.765 3.31 3.31 0 0 0 .724-.875h.52v6.604ZM67.703 83.399a6.33 6.33 0 0 1 .232-1.873 2.35 2.35 0 0 1 .711-1.094c.344-.264.77-.4 1.203-.383.322-.005.64.065.93.205.268.145.495.357.656.615.187.305.326.637.41.985a6.7 6.7 0 0 1 .137 1.545 5.904 5.904 0 0 1-.232 1.873 2.256 2.256 0 0 1-.711 1.093c-.337.27-.758.411-1.19.397a1.833 1.833 0 0 1-1.49-.629 4.403 4.403 0 0 1-.656-2.734Zm.834 0a4.24 4.24 0 0 0 .37 2.16 1.12 1.12 0 0 0 .942.533 1.108 1.108 0 0 0 .93-.533 6.289 6.289 0 0 0 0-4.32 1.108 1.108 0 0 0-.943-.534 1.04 1.04 0 0 0-.889.479 4.197 4.197 0 0 0-.41 2.215ZM77.93 86.639h-.807v-5.154c-.236.212-.492.4-.766.56-.27.162-.553.3-.847.41v-.78a4.719 4.719 0 0 0 1.175-.765 3.31 3.31 0 0 0 .725-.875h.52v6.604ZM81.553 83.398a6.333 6.333 0 0 1 .232-1.873c.134-.425.385-.804.725-1.093.338-.266.76-.401 1.19-.383.32-.007.64.064.929.205.268.145.494.357.656.615.193.302.332.635.41.984.111.508.162 1.026.15 1.545a5.866 5.866 0 0 1-.245 1.874 2.255 2.255 0 0 1-.712 1.093c-.336.27-.758.411-1.189.397a1.79 1.79 0 0 1-1.49-.684 4.307 4.307 0 0 1-.656-2.68Zm.834 0c-.069.74.058 1.485.369 2.16a1.15 1.15 0 0 0 .943.534 1.108 1.108 0 0 0 .93-.533 6.289 6.289 0 0 0 0-4.32 1.107 1.107 0 0 0-.944-.534 1.04 1.04 0 0 0-.888.479 4.197 4.197 0 0 0-.41 2.214ZM91.834 86.639h-.807v-5.154a4.103 4.103 0 0 1-.793.546c-.27.162-.553.3-.847.41v-.779c.43-.192.826-.45 1.175-.765.294-.244.54-.541.725-.875h.52l.027 6.617ZM95.402 83.398a5.867 5.867 0 0 1 .301-1.886c.124-.427.371-.807.71-1.094.34-.265.761-.4 1.19-.383.322-.006.64.064.93.205.268.145.494.357.656.616.193.301.332.634.41.984.094.514.126 1.037.096 1.558a5.865 5.865 0 0 1-.246 1.874 2.256 2.256 0 0 1-.71 1.093c-.337.27-.76.411-1.19.397a1.79 1.79 0 0 1-1.49-.684 4.306 4.306 0 0 1-.657-2.68Zm.834 0c-.07.742.062 1.489.383 2.16a1.08 1.08 0 0 0 1.86 0 6.289 6.289 0 0 0 0-4.32 1.107 1.107 0 0 0-.944-.533 1.04 1.04 0 0 0-.889.479 4.197 4.197 0 0 0-.41 2.215ZM105.684 86.639h-.807v-5.154c-.233.215-.49.403-.766.56a5.2 5.2 0 0 1-.847.41v-.78a4.793 4.793 0 0 0 1.189-.765c.287-.247.527-.544.711-.875h.52v6.604ZM112.615 86.639h-.807v-5.154c-.235.212-.491.4-.765.56a4.812 4.812 0 0 1-.861.41v-.78a4.811 4.811 0 0 0 1.189-.765c.29-.247.535-.543.725-.875h.519v6.604ZM64.135 97.658h-.807v-5.14a4.637 4.637 0 0 1-.766.547 4.96 4.96 0 0 1-.861.423v-.779c.43-.205.83-.467 1.19-.78.293-.244.538-.54.724-.874h.52v6.603ZM67.799 94.418a6.429 6.429 0 0 1 .232-1.887c.138-.424.388-.802.725-1.094.338-.265.76-.4 1.19-.382.323-.01.643.066.929.218.268.145.494.357.656.616.193.297.332.625.41.97.112.512.162 1.035.15 1.559a5.767 5.767 0 0 1-.245 1.86c-.124.43-.371.815-.711 1.107a2.01 2.01 0 0 1-2.735-.301 4.389 4.389 0 0 1-.601-2.666Zm.834 0a4.17 4.17 0 0 0 .369 2.146 1.121 1.121 0 0 0 .943.547 1.094 1.094 0 0 0 .93-.547c.324-.666.456-1.409.383-2.146a4.101 4.101 0 0 0-.383-2.16 1.108 1.108 0 0 0-.943-.533 1.025 1.025 0 0 0-.889.464 4.294 4.294 0 0 0-.41 2.229ZM74.826 94.418a6.001 6.001 0 0 1 .232-1.887 2.42 2.42 0 0 1 .711-1.094c.339-.265.76-.4 1.19-.382.324-.011.644.064.93.218.275.14.506.353.67.616.182.3.316.628.396.97.118.511.169 1.035.15 1.559a6.232 6.232 0 0 1-.232 1.86 2.393 2.393 0 0 1-.711 1.107c-.343.267-.77.403-1.203.382a1.791 1.791 0 0 1-1.49-.697 4.293 4.293 0 0 1-.643-2.652Zm.82 0a4.101 4.101 0 0 0 .383 2.146 1.094 1.094 0 0 0 .93.547 1.106 1.106 0 0 0 .943-.547c.32-.667.451-1.41.383-2.146a4.198 4.198 0 0 0-.355-2.16 1.15 1.15 0 0 0-.944-.533 1.025 1.025 0 0 0-.889.464 4.102 4.102 0 0 0-.45 2.229ZM85.203 97.658h-.806v-5.14a4.637 4.637 0 0 1-.766.547 4.96 4.96 0 0 1-.862.423v-.779a4.974 4.974 0 0 0 1.19-.78c.293-.244.539-.54.725-.874h.52v6.603ZM88.867 94.418a5.948 5.948 0 0 1 .246-1.887c.127-.425.374-.805.711-1.094.338-.265.76-.4 1.19-.382.323-.01.643.066.93.218.267.145.494.357.656.616.192.297.331.625.41.97.111.512.161 1.035.15 1.559a5.767 5.767 0 0 1-.191 1.86c-.124.43-.371.815-.711 1.107-.339.265-.76.4-1.19.382a1.75 1.75 0 0 1-1.49-.683 4.292 4.292 0 0 1-.71-2.666Zm.834 0a4.17 4.17 0 0 0 .37 2.146 1.121 1.121 0 0 0 .942.547 1.094 1.094 0 0 0 .93-.547c.324-.666.456-1.409.383-2.146a4.101 4.101 0 0 0-.383-2.16 1.108 1.108 0 0 0-.943-.533 1.025 1.025 0 0 0-.889.464 4.294 4.294 0 0 0-.41 2.229ZM95.894 94.418a6.425 6.425 0 0 1 .233-1.887 2.42 2.42 0 0 1 .71-1.094c.344-.265.77-.4 1.204-.382.32-.01.635.066.916.218.275.14.507.353.67.615.181.303.32.63.41.971a6.74 6.74 0 0 1 .137 1.559 5.825 5.825 0 0 1-.233 1.86 2.392 2.392 0 0 1-.71 1.107 2.01 2.01 0 0 1-2.735-.301 4.293 4.293 0 0 1-.602-2.666Zm.82 0a4.101 4.101 0 0 0 .356 2.146 1.107 1.107 0 0 0 .944.547 1.094 1.094 0 0 0 .93-.547 4.1 4.1 0 0 0 .382-2.146 4.196 4.196 0 0 0-.383-2.16 1.12 1.12 0 0 0-1.448-.417 1.025 1.025 0 0 0-.384.348 4.266 4.266 0 0 0-.396 2.229ZM102.908 94.418a5.934 5.934 0 0 1 .246-1.887c.132-.423.378-.801.711-1.094.338-.265.76-.4 1.189-.382.324-.011.645.064.93.218.274.137.502.351.656.616.193.297.332.625.411.97.118.51.168 1.035.15 1.559a6.245 6.245 0 0 1-.232 1.86 2.401 2.401 0 0 1-.711 1.107c-.344.265-.77.4-1.204.382a1.765 1.765 0 0 1-1.49-.683 4.297 4.297 0 0 1-.656-2.666Zm.834 0c-.073.737.059 1.48.383 2.146a1.09 1.09 0 0 0 .929.547 1.121 1.121 0 0 0 .944-.547c.311-.67.438-1.41.369-2.146a4.246 4.246 0 0 0-.369-2.16 1.145 1.145 0 0 0-.944-.533 1.007 1.007 0 0 0-.888.464 4.102 4.102 0 0 0-.424 2.229ZM113.299 97.658h-.82v-5.14a3.72 3.72 0 0 1-.766.547c-.268.168-.552.31-.848.423v-.779c.43-.205.83-.467 1.19-.78a2.83 2.83 0 0 0 .711-.874h.533v6.603Z" fill="#E1E6E9"/><path d="M88.47 64.777a13.125 13.125 0 1 0 13.126 13.125 13.126 13.126 0 0 0-3.84-9.285 13.114 13.114 0 0 0-9.285-3.84Z" fill="#FFDA45"/><path d="m87.5 82.988-4.772-4.771 1.942-1.928 2.83 2.83 5.947-5.947 1.941 1.928-7.888 7.888Z" fill="#309"/></svg>